<svg width="100" height="100" viewBox="0 0 100 100" fill="none" xmlns="http://www.w3.org/2000/svg">
<path d="M50 -0.106201C22.3719 -0.106201 -0.109375 22.3688 -0.109375 50C-0.109375 77.6313 22.3719 100.106 50 100.106C77.6281 100.106 100.109 77.6313 100.109 50C100.109 22.3688 77.6281 -0.106201 50 -0.106201ZM50 96.7688C24.2125 96.7688 3.23437 75.7876 3.23437 50C3.23437 24.2126 24.2125 3.2313 50 3.2313C75.7875 3.2313 96.7656 24.2126 96.7656 50C96.7656 75.7876 75.7875 96.7688 50 96.7688Z" fill="white"/>
<path d="M77.4813 34.5188C77.8279 33.8772 78.1135 33.2044 78.3344 32.5094C78.4367 32.187 78.4387 31.8412 78.3403 31.5176C78.2419 31.1941 78.0477 30.9079 77.7833 30.697C77.5189 30.4861 77.1968 30.3604 76.8595 30.3363C76.5221 30.3123 76.1854 30.3912 75.8938 30.5625C74.2925 31.5138 72.5591 32.2226 70.75 32.6657C68.554 30.6837 65.7019 29.585 62.7438 29.5813C61.1367 29.5825 59.5463 29.9083 58.0681 30.539C56.5899 31.1697 55.2543 32.0924 54.1413 33.2518C53.0283 34.4112 52.1609 35.7833 51.5911 37.2861C51.0212 38.7888 50.7607 40.3911 50.825 41.9969C43.797 41.1122 37.3792 37.5558 32.9032 32.0657C32.7317 31.8577 32.5125 31.6942 32.2643 31.589C32.0161 31.4838 31.7461 31.4401 31.4774 31.4616C31.2087 31.4831 30.9491 31.5691 30.7207 31.7123C30.4924 31.8556 30.302 32.0518 30.1657 32.2844C29.1407 34.0436 28.5837 36.036 28.5475 38.0716C28.5114 40.1072 28.9975 42.1182 29.9594 43.9125C29.7235 43.9524 29.4969 44.035 29.2907 44.1563C29.038 44.3174 28.83 44.5396 28.6858 44.8023C28.5416 45.065 28.4659 45.3598 28.4657 45.6594C28.4657 49.2063 30.0438 52.4626 32.5875 54.6751L32.4782 54.7844C32.2861 55.0017 32.154 55.2652 32.0948 55.5491C32.0356 55.8329 32.0514 56.1273 32.1407 56.4032C32.6711 58.0579 33.5568 59.5768 34.7357 60.8534C35.9146 62.13 37.3583 63.1336 38.9657 63.7938C35.6644 65.4043 31.9699 66.0323 28.3219 65.6032C27.9469 65.565 27.5699 65.6522 27.2498 65.8513C26.9297 66.0503 26.6847 66.3499 26.5532 66.7032C26.4268 67.059 26.4245 67.4471 26.5464 67.8045C26.6684 68.1619 26.9075 68.4675 27.225 68.6719C32.1844 71.8549 37.954 73.5459 43.8469 73.5438C63.1594 73.5438 74.7032 57.8563 74.7032 42.6907L74.7 42.1782C76.5717 40.717 78.1975 38.9657 79.5157 36.9907C79.7153 36.6921 79.8134 36.3372 79.7956 35.9785C79.7778 35.6198 79.6449 35.2763 79.4167 34.999C79.1885 34.7217 78.877 34.5253 78.5284 34.4388C78.1799 34.3523 77.8127 34.3803 77.4813 34.5188ZM72.0282 40.0032C71.8014 40.1662 71.6191 40.3835 71.4979 40.6352C71.3767 40.8868 71.3205 41.1648 71.3344 41.4438C71.3532 41.8563 71.3625 42.275 71.3625 42.6875C71.3625 56.2125 61.0719 70.2032 43.85 70.2032C40.7785 70.2046 37.7286 69.689 34.8282 68.6782C38.3019 68.0125 41.5651 66.5228 44.3438 64.3344C44.6143 64.1212 44.8123 63.8296 44.9107 63.4995C45.0092 63.1694 45.0033 62.817 44.8939 62.4904C44.7845 62.1638 44.5768 61.8789 44.2993 61.6748C44.0219 61.4707 43.6882 61.3573 43.3438 61.35C41.9964 61.3243 40.6739 60.9823 39.4829 60.3515C38.292 59.7208 37.2659 58.8189 36.4875 57.7188C37.2782 57.6657 38.0532 57.5344 38.8063 57.3313C39.1708 57.2337 39.4915 57.0155 39.716 56.7123C39.9405 56.409 40.0557 56.0387 40.0426 55.6616C40.0295 55.2845 39.8891 54.9229 39.6441 54.6359C39.3992 54.3489 39.0642 54.1534 38.6938 54.0813C37.172 53.7717 35.763 53.0543 34.6175 52.0057C33.472 50.9571 32.6332 49.6168 32.1907 48.1282C33.0219 48.3375 33.875 48.4594 34.7282 48.4875C35.4625 48.4844 36.1438 48.0344 36.3719 47.3282C36.6 46.6219 36.3313 45.8438 35.7094 45.4313C34.239 44.4516 33.1069 43.042 32.4676 41.3948C31.8283 39.7476 31.713 37.9433 32.1375 36.2282C37.5658 41.7979 44.8955 45.1146 52.6625 45.5157C53.2125 45.5188 53.6938 45.3219 54.0282 44.9188C54.3625 44.5157 54.4907 43.9813 54.3719 43.4688C53.9445 41.6282 54.1357 39.698 54.9158 37.977C55.696 36.2559 57.0216 34.84 58.6876 33.9483C60.3536 33.0566 62.267 32.7389 64.1317 33.0442C65.9965 33.3496 67.7086 34.2611 69.0032 35.6376C69.1972 35.8446 69.4407 35.9988 69.7108 36.0857C69.9808 36.1726 70.2686 36.1894 70.5469 36.1344C71.0625 36.0313 71.5719 35.9125 72.075 35.7751C71.8482 35.9448 71.6125 36.1024 71.3688 36.2469C71.0447 36.4454 70.798 36.7484 70.6692 37.1059C70.5404 37.4635 70.5372 37.8542 70.6602 38.2138C70.7832 38.5733 71.0251 38.8802 71.3459 39.084C71.6667 39.2877 72.0473 39.376 72.425 39.3344L72.9938 39.2626C72.6806 39.5205 72.3585 39.7676 72.0282 40.0032Z" fill="white"/>
</svg>
