<svg width="151" height="151" viewBox="0 0 151 151" fill="none" xmlns="http://www.w3.org/2000/svg">
<path fill-rule="evenodd" clip-rule="evenodd" d="M14.7417 97.8408L0 75.4263L27.0304 44.783L73.1254 45.1538L90.9514 87.271H96.4887L106.932 72.2739L130.902 71.3235L149.335 105.745L101.394 149.044L46.7022 150.134L7.99014 117.149L14.7417 97.8408Z" fill="url(#paint0_linear_4_969)"/>
<path fill-rule="evenodd" clip-rule="evenodd" d="M0 75.4263L26.7147 100.761L49.155 98.2581L73.1254 45.1538L27.0304 44.783L0 75.4263Z" fill="#FF7C25"/>
<path fill-rule="evenodd" clip-rule="evenodd" d="M106.932 72.2737L80.0955 114.066L87.867 117.149L125.972 104.261L130.902 71.3234L106.932 72.2737Z" fill="#FF7C25"/>
<path fill-rule="evenodd" clip-rule="evenodd" d="M68.2197 131.868L82.5485 122.573L93.8173 120.024V129.55L71.2798 138.011L68.2197 131.868Z" fill="#FF7C25"/>
<path fill-rule="evenodd" clip-rule="evenodd" d="M7.99023 117.149L39.7321 124.358L58.1653 117.149L14.7418 97.8407L7.99023 117.149Z" fill="#FF7C25"/>
<path fill-rule="evenodd" clip-rule="evenodd" d="M58.165 105.745L62.0751 89.8901L65.548 93.7148L66.568 102.616L58.165 105.745Z" fill="#FF7C25"/>
<path fill-rule="evenodd" clip-rule="evenodd" d="M38.5179 128.322L40.558 126.282H52.4339L50.8067 130.176L33.0779 131.868L38.5179 128.322Z" fill="#FF7C25"/>
<path opacity="0.5" fill-rule="evenodd" clip-rule="evenodd" d="M26.7148 100.761L27.8806 103.682L58.1654 117.149L39.7322 124.358L40.5579 126.282H52.4338L50.8066 130.176L60.2296 147.491L55.2995 132.842L60.2296 124.126L76.8171 126.282L82.5485 122.573L93.8173 120.023V129.55L101.856 147.491L150.404 105.745L121.673 128.322L97.2417 114.947L87.8672 117.149L80.0957 114.066L96.4888 87.2708H90.9516L73.1255 45.1537L68.2198 64.5086L74.6556 76.6778L60.8368 88.4066L62.0754 89.8901L65.5483 93.7147L66.5683 102.616L58.1654 105.745L59.4039 100.761L49.1552 98.2579L26.7148 100.761Z" fill="#A67C4C"/>
<path opacity="0.5" fill-rule="evenodd" clip-rule="evenodd" d="M125.972 104.261L141.345 106.765L139.84 114.066L150.404 105.745L130.902 71.3234L125.972 104.261Z" fill="#A67C4C"/>
<path fill-rule="evenodd" clip-rule="evenodd" d="M68.2198 64.5085L54.6924 94.2247L74.6556 76.6778L68.2198 64.5085Z" fill="#FF7C25"/>
<path opacity="0.5" fill-rule="evenodd" clip-rule="evenodd" d="M90.9514 87.2708L82.9613 105.745L66.5681 102.616L65.5481 93.7147L78.2497 97.8407L74.6554 76.6778L68.2196 64.5086L73.1253 45.1537L90.9514 87.2708Z" fill="#A67C4C"/>
<path fill-rule="evenodd" clip-rule="evenodd" d="M120.629 106.069L126.822 98.6982L129.178 104.794L120.629 106.069Z" fill="#E05F25"/>
<path fill-rule="evenodd" clip-rule="evenodd" d="M41.189 99.1388L52.4334 90.9796L52.7977 99.1388H41.189Z" fill="#E05F25"/>
<path fill-rule="evenodd" clip-rule="evenodd" d="M35.5789 123.408L45.7062 122.017L40.5576 126.282L35.5789 123.408Z" fill="#E05F25"/>
<path fill-rule="evenodd" clip-rule="evenodd" d="M108.146 110.288L111.643 106.069L116.67 107.414L108.146 110.288Z" fill="#E05F25"/>
<path fill-rule="evenodd" clip-rule="evenodd" d="M11.2203 92.4862L9.35034 84.3039L45.7066 56.813L70.3813 51.2267L78.5899 58.0646L69.847 51.8757L54.6924 56.813L26.7149 72.1346L9.93318 84.4893L11.2203 92.4862Z" fill="url(#paint1_linear_4_969)"/>
<path fill-rule="evenodd" clip-rule="evenodd" d="M35.3364 66.0383L45.5366 57.601L46.9695 56.8824L53.6482 55.8162L54.3767 56.2566L45.9009 60.9156L35.3364 66.0383Z" fill="#FF7C25"/>
<path fill-rule="evenodd" clip-rule="evenodd" d="M5.27002 80.4099L16.5388 78.88L9.35014 84.304L10.273 88.3372L5.27002 80.4099Z" fill="#E05F25"/>
<path fill-rule="evenodd" clip-rule="evenodd" d="M10.3701 13.0501L17.2917 3.08288L35.7734 0L43.0835 27.9777L35.7734 33.054L10.3701 13.0501Z" fill="url(#paint2_linear_4_969)"/>
<path fill-rule="evenodd" clip-rule="evenodd" d="M129.178 44.7827L130.902 28.024L140.738 23.9443L145.037 31.2459L137.119 44.7827H129.178Z" fill="url(#paint3_linear_4_969)"/>
<path fill-rule="evenodd" clip-rule="evenodd" d="M10.3701 13.0501L25.5247 16.527L32.3005 10.709L35.7734 0L17.2917 1.69213L10.3701 13.0501Z" fill="#FF7C25"/>
<path fill-rule="evenodd" clip-rule="evenodd" d="M140.738 23.9443L142.268 32.0804L135.201 42.2098L129.178 44.7827L130.902 28.024L140.738 23.9443Z" fill="#FF7C25"/>
<path opacity="0.5" fill-rule="evenodd" clip-rule="evenodd" d="M142.267 32.0804L135.2 42.2099L137.119 44.7828L145.036 31.246L142.267 32.0804Z" fill="#A67C4C"/>
<path opacity="0.5" fill-rule="evenodd" clip-rule="evenodd" d="M25.5247 16.527L35.7734 33.054L10.3701 13.05L25.5247 16.527Z" fill="#A67C4C"/>
<defs>
<linearGradient id="paint0_linear_4_969" x1="74.6634" y1="150.129" x2="74.6634" y2="44.7927" gradientUnits="userSpaceOnUse">
<stop stop-color="#A43440"/>
<stop offset="1" stop-color="#C75225"/>
</linearGradient>
<linearGradient id="paint1_linear_4_969" x1="9.36151" y1="71.8511" x2="78.5953" y2="71.8511" gradientUnits="userSpaceOnUse">
<stop stop-color="#C75225"/>
<stop offset="1" stop-color="#A43440"/>
</linearGradient>
<linearGradient id="paint2_linear_4_969" x1="26.7266" y1="33.0591" x2="26.7266" y2="-0.00463521" gradientUnits="userSpaceOnUse">
<stop stop-color="#A43440"/>
<stop offset="1" stop-color="#C75225"/>
</linearGradient>
<linearGradient id="paint3_linear_4_969" x1="137.111" y1="44.7925" x2="137.111" y2="23.9538" gradientUnits="userSpaceOnUse">
<stop stop-color="#A43440"/>
<stop offset="1" stop-color="#C75225"/>
</linearGradient>
</defs>
</svg>
