<svg width="67" height="142" viewBox="0 0 67 142" fill="none" xmlns="http://www.w3.org/2000/svg">
<path fill-rule="evenodd" clip-rule="evenodd" d="M4.88281 28.0887L15.2772 4.061L35.4856 0L57.4827 28.0887L31.1828 46.8952L4.88281 28.0887Z" fill="url(#paint0_linear_4_962)"/>
<path fill-rule="evenodd" clip-rule="evenodd" d="M4.88281 28.0887L25.0913 36.4525L44.2361 19.6282L35.4856 0L15.2772 4.061L4.88281 28.0887Z" fill="#FF7C25"/>
<path opacity="0.5" fill-rule="evenodd" clip-rule="evenodd" d="M44.2354 19.6282L57.482 28.0887L35.4849 0L44.2354 19.6282Z" fill="#A67C4C"/>
<path fill-rule="evenodd" clip-rule="evenodd" d="M0 141.266L7.20343 67.4424L48.5387 49.5062L66.62 81.5591L33.3099 141.266H0Z" fill="url(#paint1_linear_4_962)"/>
<path fill-rule="evenodd" clip-rule="evenodd" d="M48.5387 49.5062L55.017 85.3301L25.2846 129.856L0 141.266L7.20343 67.4424L48.5387 49.5062Z" fill="#FF7C25"/>
<path opacity="0.5" fill-rule="evenodd" clip-rule="evenodd" d="M55.0171 85.3303L25.2847 129.857L33.31 141.266L66.6201 81.5593L55.0171 85.3303Z" fill="#A67C4C"/>
<defs>
<linearGradient id="paint0_linear_4_962" x1="31.19" y1="46.8884" x2="31.19" y2="-0.0212722" gradientUnits="userSpaceOnUse">
<stop stop-color="#A43440"/>
<stop offset="1" stop-color="#C75225"/>
</linearGradient>
<linearGradient id="paint1_linear_4_962" x1="33.3216" y1="141.261" x2="33.3216" y2="49.4845" gradientUnits="userSpaceOnUse">
<stop stop-color="#A43440"/>
<stop offset="1" stop-color="#C75225"/>
</linearGradient>
</defs>
</svg>
