<svg width="237" height="62" viewBox="0 0 237 62" fill="none" xmlns="http://www.w3.org/2000/svg">
<mask id="path-1-inside-1_3_404" fill="white">
<path fill-rule="evenodd" clip-rule="evenodd" d="M190.48 0.908691C191.731 0.908691 192.797 1.7487 193.681 2.63283L203.889 12.8409C205.841 14.7935 209.007 14.7935 210.96 12.8409L221.168 2.63283C222.052 1.7487 223.118 0.908691 224.368 0.908691H231.727C234.488 0.908691 236.727 3.14727 236.727 5.90869V56.9995C236.727 59.761 234.488 61.9995 231.727 61.9995H5C2.23858 61.9995 0 59.761 0 56.9995V5.90869C0 3.14727 2.23858 0.908691 5 0.908691H190.48Z"/>
</mask>
<path d="M193.681 2.63283L192.267 4.04704L192.267 4.04704L193.681 2.63283ZM203.889 12.8409L202.475 14.2551L202.475 14.2551L203.889 12.8409ZM210.96 12.8409L212.374 14.2551L212.374 14.2551L210.96 12.8409ZM221.168 2.63283L222.582 4.04704L222.582 4.04704L221.168 2.63283ZM190.48 2.90869C190.85 2.90869 191.401 3.18188 192.267 4.04704L195.095 1.21862C194.192 0.315521 192.611 -1.09131 190.48 -1.09131V2.90869ZM192.267 4.04704L202.475 14.2551L205.303 11.4266L195.095 1.21862L192.267 4.04704ZM202.475 14.2551C205.208 16.9887 209.64 16.9887 212.374 14.2551L209.546 11.4266C208.374 12.5982 206.475 12.5982 205.303 11.4266L202.475 14.2551ZM212.374 14.2551L222.582 4.04704L219.754 1.21862L209.546 11.4266L212.374 14.2551ZM222.582 4.04704C223.447 3.18188 223.999 2.90869 224.368 2.90869V-1.09131C222.237 -1.09131 220.657 0.315522 219.754 1.21862L222.582 4.04704ZM224.368 2.90869H231.727V-1.09131H224.368V2.90869ZM231.727 2.90869C233.384 2.90869 234.727 4.25184 234.727 5.90869H238.727C238.727 2.0427 235.593 -1.09131 231.727 -1.09131V2.90869ZM234.727 5.90869V56.9995H238.727V5.90869H234.727ZM234.727 56.9995C234.727 58.6564 233.384 59.9995 231.727 59.9995V63.9995C235.593 63.9995 238.727 60.8655 238.727 56.9995H234.727ZM231.727 59.9995H5V63.9995H231.727V59.9995ZM5 59.9995C3.34315 59.9995 2 58.6564 2 56.9995H-2C-2 60.8655 1.13401 63.9995 5 63.9995V59.9995ZM2 56.9995V5.90869H-2V56.9995H2ZM2 5.90869C2 4.25184 3.34315 2.90869 5 2.90869V-1.09131C1.13401 -1.09131 -2 2.0427 -2 5.90869H2ZM5 2.90869H190.48V-1.09131H5V2.90869Z" fill="url(#paint0_linear_3_404)" mask="url(#path-1-inside-1_3_404)"/>
<defs>
<linearGradient id="paint0_linear_3_404" x1="2.03437" y1="36.6905" x2="236.751" y2="32.9277" gradientUnits="userSpaceOnUse">
<stop stop-color="#C71458"/>
<stop offset="1" stop-color="#FEDF67"/>
</linearGradient>
</defs>
</svg>
