<svg width="912" height="166" viewBox="0 0 912 166" fill="none" xmlns="http://www.w3.org/2000/svg">
<mask id="path-1-inside-1_7_1779" fill="white">
<path fill-rule="evenodd" clip-rule="evenodd" d="M740.636 38.6071C739.903 38.2084 739.082 37.9995 738.247 37.9995H5C2.23858 37.9995 0 40.2381 0 42.9995V161C0 163.761 2.23856 166 4.99998 166H907C909.761 166 912 163.761 912 161V42.9995C912 40.2381 909.761 37.9995 907 37.9995H859.972C859.137 37.9995 858.316 38.2084 857.583 38.6071L803.502 68.0197C801.076 69.3391 797.143 69.3391 794.717 68.0197L740.636 38.6071Z"/>
</mask>
<path d="M803.502 68.0197L804.457 69.7767L804.457 69.7767L803.502 68.0197ZM794.717 68.0197L793.761 69.7767L793.762 69.7767L794.717 68.0197ZM857.583 38.6071L858.539 40.3641L857.583 38.6071ZM740.636 38.6071L739.68 40.3641L740.636 38.6071ZM5 39.9995H738.247V35.9995H5V39.9995ZM2 161V42.9995H-2V161H2ZM907 164H4.99998V168H907V164ZM910 42.9995V161H914V42.9995H910ZM859.972 39.9995H907V35.9995H859.972V39.9995ZM856.627 36.8501L802.546 66.2628L804.457 69.7767L858.539 40.3641L856.627 36.8501ZM802.546 66.2628C801.699 66.7236 800.459 67.0092 799.109 67.0092C797.76 67.0092 796.52 66.7236 795.673 66.2628L793.762 69.7767C795.34 70.6353 797.279 71.0092 799.109 71.0092C800.939 71.0092 802.879 70.6353 804.457 69.7767L802.546 66.2628ZM795.673 66.2628L741.591 36.8501L739.68 40.3641L793.761 69.7767L795.673 66.2628ZM859.972 35.9995C858.804 35.9995 857.654 36.2919 856.627 36.8501L858.539 40.3641C858.978 40.1248 859.471 39.9995 859.972 39.9995V35.9995ZM914 42.9995C914 39.1335 910.866 35.9995 907 35.9995V39.9995C908.657 39.9995 910 41.3427 910 42.9995H914ZM907 168C910.866 168 914 164.866 914 161H910C910 162.657 908.657 164 907 164V168ZM-2 161C-2 164.866 1.13398 168 4.99998 168V164C3.34314 164 2 162.657 2 161H-2ZM738.247 39.9995C738.748 39.9995 739.241 40.1248 739.68 40.3641L741.591 36.8501C740.565 36.2919 739.415 35.9995 738.247 35.9995V39.9995ZM5 35.9995C1.13401 35.9995 -2 39.1335 -2 42.9995H2C2 41.3427 3.34314 39.9995 5 39.9995V35.9995Z" fill="url(#paint0_linear_7_1779)" mask="url(#path-1-inside-1_7_1779)"/>
<rect width="65.5585" height="65.5585" rx="25" transform="matrix(0.890105 -0.455756 0.890105 0.455756 741.055 29.8787)" fill="url(#paint1_linear_7_1779)"/>
<defs>
<linearGradient id="paint0_linear_7_1779" x1="7.83751" y1="112.971" x2="911.538" y2="86.333" gradientUnits="userSpaceOnUse">
<stop stop-color="#C71458"/>
<stop offset="1" stop-color="#FEDF67"/>
</linearGradient>
<linearGradient id="paint1_linear_7_1779" x1="0.563394" y1="38.3985" x2="65.5806" y2="38.1296" gradientUnits="userSpaceOnUse">
<stop stop-color="#C71458"/>
<stop offset="1" stop-color="#FEDF67"/>
</linearGradient>
</defs>
</svg>
