<svg width="67" height="70" viewBox="0 0 67 70" fill="none" xmlns="http://www.w3.org/2000/svg">
<path fill-rule="evenodd" clip-rule="evenodd" d="M4.88281 14.2415L15.2772 2.61369L35.4856 0.648438L57.4827 14.2415L31.1828 23.3425L4.88281 14.2415Z" fill="url(#paint0_linear_4_1301)"/>
<path fill-rule="evenodd" clip-rule="evenodd" d="M4.88281 14.2415L25.0913 18.289L44.2361 10.1472L35.4856 0.648438L15.2772 2.61369L4.88281 14.2415Z" fill="#FF7C25"/>
<path opacity="0.5" fill-rule="evenodd" clip-rule="evenodd" d="M44.2354 10.1472L57.482 14.2415L35.4849 0.648438L44.2354 10.1472Z" fill="#A67C4C"/>
<path fill-rule="evenodd" clip-rule="evenodd" d="M0 69.0114L7.20343 33.2858L48.5387 24.606L66.62 40.1174L33.3099 69.0114H0Z" fill="url(#paint1_linear_4_1301)"/>
<path fill-rule="evenodd" clip-rule="evenodd" d="M48.5387 24.606L55.017 41.9423L25.2846 63.49L0 69.0114L7.20343 33.2858L48.5387 24.606Z" fill="#FF7C25"/>
<path opacity="0.5" fill-rule="evenodd" clip-rule="evenodd" d="M55.0171 41.9426L25.2847 63.4902L33.31 69.0116L66.6201 40.1177L55.0171 41.9426Z" fill="#A67C4C"/>
<defs>
<linearGradient id="paint0_linear_4_1301" x1="31.19" y1="23.3392" x2="31.19" y2="0.638143" gradientUnits="userSpaceOnUse">
<stop stop-color="#A43440"/>
<stop offset="1" stop-color="#C75225"/>
</linearGradient>
<linearGradient id="paint1_linear_4_1301" x1="33.3216" y1="69.009" x2="33.3216" y2="24.5954" gradientUnits="userSpaceOnUse">
<stop stop-color="#A43440"/>
<stop offset="1" stop-color="#C75225"/>
</linearGradient>
</defs>
</svg>
