<svg width="1093" height="166" viewBox="0 0 1093 166" fill="none" xmlns="http://www.w3.org/2000/svg">
<mask id="path-1-inside-1_5_1472" fill="white">
<path fill-rule="evenodd" clip-rule="evenodd" d="M887.272 38.4464C886.623 38.1519 885.919 37.9995 885.206 37.9995H5C2.23858 37.9995 0 40.2381 0 42.9995V161C0 163.761 2.23855 166 4.99997 166H1088C1090.76 166 1093 163.761 1093 161V42.9995C1093 40.2381 1090.76 37.9995 1088 37.9995H1030.2C1029.49 37.9995 1028.79 38.1519 1028.14 38.4464L962.258 68.3424C959.743 69.4835 955.666 69.4835 953.152 68.3424L887.272 38.4464Z"/>
</mask>
<text/>
<path d="M962.258 68.3424L963.084 70.1636L963.084 70.1636L962.258 68.3424ZM953.152 68.3424L952.325 70.1636L952.325 70.1636L953.152 68.3424ZM1028.14 38.4464L1028.96 40.2676L1028.14 38.4464ZM887.272 38.4464L886.446 40.2676L887.272 38.4464ZM5 39.9995H885.206V35.9995H5V39.9995ZM2 161V42.9995H-2V161H2ZM1088 164H4.99997V168H1088V164ZM1091 42.9995V161H1095V42.9995H1091ZM1030.2 39.9995H1088V35.9995H1030.2V39.9995ZM1027.31 36.6252L961.431 66.5211L963.084 70.1636L1028.96 40.2676L1027.31 36.6252ZM961.431 66.5211C960.505 66.9414 959.158 67.1982 957.705 67.1982C956.251 67.1982 954.904 66.9414 953.978 66.5211L952.325 70.1636C953.914 70.8844 955.862 71.1982 957.705 71.1982C959.547 71.1982 961.496 70.8844 963.084 70.1636L961.431 66.5211ZM953.978 66.5211L888.099 36.6252L886.446 40.2676L952.325 70.1636L953.978 66.5211ZM1030.2 35.9995C1029.21 35.9995 1028.22 36.2128 1027.31 36.6252L1028.96 40.2676C1029.35 40.0909 1029.78 39.9995 1030.2 39.9995V35.9995ZM1095 42.9995C1095 39.1335 1091.87 35.9995 1088 35.9995V39.9995C1089.66 39.9995 1091 41.3427 1091 42.9995H1095ZM1088 168C1091.87 168 1095 164.866 1095 161H1091C1091 162.657 1089.66 164 1088 164V168ZM-2 161C-2 164.866 1.13396 168 4.99997 168V164C3.34313 164 2 162.657 2 161H-2ZM885.206 39.9995C885.634 39.9995 886.056 40.0909 886.446 40.2676L888.099 36.6252C887.19 36.2128 886.204 35.9995 885.206 35.9995V39.9995ZM5 35.9995C1.13401 35.9995 -2 39.1335 -2 42.9995H2C2 41.3427 3.34314 39.9995 5 39.9995V35.9995Z" fill="url(#paint0_linear_5_1472)" mask="url(#path-1-inside-1_5_1472)"/>
<rect width="76.0504" height="76.0504" rx="25" transform="matrix(0.91959 -0.39288 0.91959 0.39288 888.128 29.8787)" fill="url(#paint1_linear_5_1472)"/>
<defs>
<linearGradient id="paint0_linear_5_1472" x1="9.39298" y1="112.971" x2="1092.04" y2="74.7248" gradientUnits="userSpaceOnUse">
<stop stop-color="#C71458"/>
<stop offset="1" stop-color="#FEDF67"/>
</linearGradient>
<linearGradient id="paint1_linear_5_1472" x1="0.653559" y1="44.5438" x2="76.0761" y2="44.2317" gradientUnits="userSpaceOnUse">
<stop stop-color="#C71458"/>
<stop offset="1" stop-color="#FEDF67"/>
</linearGradient>
</defs>
</svg>
