<svg width="1093" height="423" viewBox="0 0 1093 423" fill="none" xmlns="http://www.w3.org/2000/svg">
<mask id="path-1-inside-1_5_1480" fill="white">
<path fill-rule="evenodd" clip-rule="evenodd" d="M887.779 18.0184C886.845 16.6702 885.309 15.8658 883.669 15.8658H5C2.23858 15.8658 0 18.1044 0 20.8659V418C0 420.761 2.23855 423 4.99997 423H1088C1090.76 423 1093 420.761 1093 418V20.8658C1093 18.1044 1090.76 15.8658 1088 15.8658H1031.74C1030.1 15.8658 1028.56 16.6702 1027.63 18.0184L960.552 114.84C958.98 117.11 956.43 117.11 954.857 114.84L887.779 18.0184Z"/>
</mask>
<path d="M887.779 18.0184L889.423 16.8794V16.8794L887.779 18.0184ZM1027.63 18.0184L1025.99 16.8794L1025.99 16.8794L1027.63 18.0184ZM960.552 114.84L958.908 113.701V113.701L960.552 114.84ZM954.857 114.84L953.213 115.979V115.979L954.857 114.84ZM889.423 16.8794C888.115 14.992 885.965 13.8658 883.669 13.8658V17.8658C884.653 17.8658 885.574 18.3485 886.135 19.1574L889.423 16.8794ZM883.669 13.8658H5V17.8658H883.669V13.8658ZM5 13.8658C1.134 13.8658 -2 16.9999 -2 20.8659H2C2 19.209 3.34315 17.8658 5 17.8658V13.8658ZM-2 20.8659V418H2V20.8659H-2ZM-2 418C-2 421.866 1.13396 425 4.99997 425V421C3.34313 421 2 419.657 2 418H-2ZM4.99997 425H1088V421H4.99997V425ZM1088 425C1091.87 425 1095 421.866 1095 418H1091C1091 419.657 1089.66 421 1088 421V425ZM1095 418V20.8658H1091V418H1095ZM1095 20.8658C1095 16.9999 1091.87 13.8658 1088 13.8658V17.8658C1089.66 17.8658 1091 19.209 1091 20.8658H1095ZM1088 13.8658H1031.74V17.8658H1088V13.8658ZM1031.74 13.8658C1029.44 13.8658 1027.29 14.992 1025.99 16.8794L1029.27 19.1574C1029.84 18.3484 1030.76 17.8658 1031.74 17.8658V13.8658ZM1025.99 16.8794L958.908 113.701L962.196 115.979L1029.27 19.1574L1025.99 16.8794ZM958.908 113.701C958.411 114.419 957.944 114.543 957.705 114.543C957.466 114.543 956.998 114.419 956.501 113.701L953.213 115.979C954.289 117.532 955.883 118.543 957.705 118.543C959.527 118.543 961.121 117.532 962.196 115.979L958.908 113.701ZM956.501 113.701L889.423 16.8794L886.135 19.1574L953.213 115.979L956.501 113.701Z" fill="url(#paint0_linear_5_1480)" mask="url(#path-1-inside-1_5_1480)"/>
<rect width="55.2886" height="50.3345" transform="matrix(0.592698 -0.805425 0.592698 0.805425 928.23 44.5309)" fill="url(#paint1_linear_5_1480)"/>
<defs>
<linearGradient id="paint0_linear_5_1480" x1="9.39298" y1="254.33" x2="1093.25" y2="242.292" gradientUnits="userSpaceOnUse">
<stop stop-color="#C71458"/>
<stop offset="1" stop-color="#FEDF67"/>
</linearGradient>
<linearGradient id="paint1_linear_5_1480" x1="0.475137" y1="29.4816" x2="55.3071" y2="29.2324" gradientUnits="userSpaceOnUse">
<stop stop-color="#C71458"/>
<stop offset="1" stop-color="#FEDF67"/>
</linearGradient>
</defs>
</svg>
