<svg width="1093" height="143" viewBox="0 0 1093 143" fill="none" xmlns="http://www.w3.org/2000/svg">
<mask id="path-1-inside-1_81_24" fill="white">
<path fill-rule="evenodd" clip-rule="evenodd" d="M887.272 15.4469C886.623 15.1524 885.919 15 885.206 15H5C2.23858 15 0 17.2386 0 20V138.001C0 140.762 2.23855 143.001 4.99997 143.001H1088C1090.76 143.001 1093 140.762 1093 138.001V20C1093 17.2386 1090.76 15 1088 15H1030.2C1029.49 15 1028.79 15.1524 1028.14 15.4469L962.258 45.3429C959.743 46.484 955.666 46.484 953.152 45.3429L887.272 15.4469Z"/>
</mask>
<path d="M887.272 15.4469L888.099 13.6256L888.099 13.6256L887.272 15.4469ZM1028.14 15.4469L1028.96 17.2681L1028.96 17.2681L1028.14 15.4469ZM962.258 45.3429L963.084 47.1641L963.084 47.1641L962.258 45.3429ZM953.152 45.3429L952.325 47.1641L952.325 47.1641L953.152 45.3429ZM888.099 13.6256C887.19 13.2133 886.204 13 885.206 13V17C885.634 17 886.056 17.0914 886.446 17.2682L888.099 13.6256ZM885.206 13H5V17H885.206V13ZM5 13C1.13401 13 -2 16.134 -2 20H2C2 18.3431 3.34314 17 5 17V13ZM-2 20V138.001H2V20H-2ZM-2 138.001C-2 141.866 1.13396 145.001 4.99997 145.001V141.001C3.34313 141.001 2 139.657 2 138.001H-2ZM4.99997 145.001H1088V141.001H4.99997V145.001ZM1088 145.001C1091.87 145.001 1095 141.867 1095 138.001H1091C1091 139.657 1089.66 141.001 1088 141.001V145.001ZM1095 138.001V20H1091V138.001H1095ZM1095 20C1095 16.134 1091.87 13 1088 13V17C1089.66 17 1091 18.3431 1091 20H1095ZM1088 13H1030.2V17H1088V13ZM1030.2 13C1029.21 13 1028.22 13.2133 1027.31 13.6257L1028.96 17.2681C1029.35 17.0914 1029.78 17 1030.2 17V13ZM1027.31 13.6256L961.431 43.5216L963.084 47.1641L1028.96 17.2681L1027.31 13.6256ZM961.431 43.5216C960.505 43.9419 959.158 44.1987 957.705 44.1987C956.251 44.1987 954.904 43.9419 953.978 43.5216L952.325 47.1641C953.914 47.8849 955.862 48.1987 957.705 48.1987C959.547 48.1987 961.496 47.8849 963.084 47.1641L961.431 43.5216ZM953.978 43.5216L888.099 13.6256L886.446 17.2681L952.325 47.1641L953.978 43.5216Z" fill="url(#paint0_linear_81_24)" mask="url(#path-1-inside-1_81_24)"/>
<rect width="44.5705" height="48.9894" transform="matrix(0.91959 -0.39288 0.91959 0.39288 913.014 17.5107)" fill="url(#paint1_linear_81_24)"/>
<defs>
<linearGradient id="paint0_linear_81_24" x1="9.39298" y1="89.9717" x2="1092.04" y2="51.7253" gradientUnits="userSpaceOnUse">
<stop stop-color="#C71458"/>
<stop offset="1" stop-color="#FEDF67"/>
</linearGradient>
<linearGradient id="paint1_linear_81_24" x1="0.383028" y1="28.6938" x2="44.5857" y2="28.5274" gradientUnits="userSpaceOnUse">
<stop stop-color="#C71458"/>
<stop offset="1" stop-color="#FEDF67"/>
</linearGradient>
</defs>
</svg>
