<svg width="212" height="115" xmlns="http://www.w3.org/2000/svg" fill="none">
 <defs>
  <linearGradient y2="1.20019" x2="0.34261" y1="0.08018" x1="0.20691" id="paint0_linear_4_1347">
   <stop stop-color="#A43440"/>
   <stop stop-color="#C75225" offset="1"/>
  </linearGradient>
  <linearGradient y2="1.28913" x2="0.40187" y1="0.33098" x1="1.23084" id="paint1_linear_4_1347">
   <stop stop-color="#C75225"/>
   <stop stop-color="#A43440" offset="1"/>
  </linearGradient>
  <linearGradient y2="1.1188" x2="0.41103" y1="-0.08928" x1="0.25297" id="paint2_linear_4_1347">
   <stop stop-color="#A43440"/>
   <stop stop-color="#C75225" offset="1"/>
  </linearGradient>
  <linearGradient y2="1.12748" x2="0.22769" y1="0.10459" x1="0.00002" id="paint3_linear_4_1347">
   <stop stop-color="#A43440"/>
   <stop stop-color="#C75225" offset="1"/>
  </linearGradient>
 </defs>
 <g>
  <title>Layer 1</title>
  <path id="svg_1" fill="url(#paint0_linear_4_1347)" d="m136.175,31.7843l32.265,12.6377l-0.522,28.297l-43.905,10.498l-51.286,-26.052l-5.237,1.293l2.38,13.198l-21.8973,6.28l-45.5703,-20.39l9.9565,-42.2595l50.8429,-13.5541l63.5772,14.623l9.396,15.4289z" clip-rule="evenodd" fill-rule="evenodd"/>
  <path id="svg_2" fill="#FF7C25" d="m168.44,43.422l-45.978,-11.9369l-19.18,7.0369l20.731,43.695l43.905,-10.498l0.522,-28.297z" clip-rule="evenodd" fill-rule="evenodd"/>
  <path id="svg_3" fill="#FF7C25" d="m69.869,70.656l-8.7752,-36.25l-9.8708,-0.397l-25.5096,18.145l22.2585,24.781l21.8971,-6.279z" clip-rule="evenodd" fill-rule="evenodd"/>
  <path id="svg_4" fill="#FF7C25" d="m57.7762,18.8611l-5.9563,10.0146l-8.5751,4.4613l-7.7867,-6.8351l14.403,-11.333l7.9151,3.6922z" clip-rule="evenodd" fill-rule="evenodd"/>
  <path id="svg_5" fill="#FF7C25" d="m126.779,15.3553l-35.917,2.2411l-11.543,9.4765l56.856,3.7113l-9.396,-15.4289z" clip-rule="evenodd" fill-rule="evenodd"/>
  <path id="svg_6" fill="#FF7C25" d="m88.64,35.255l9.261,12.287l-6.411,-1.933l-8.24,-6.147l5.39,-4.207z" clip-rule="evenodd" fill-rule="evenodd"/>
  <path id="svg_7" fill="#FF7C25" d="m88.772,14.4698l-0.263,1.9392l-11.232,2.7731l-1.643,-3.1725l15.386,-5.3534l-2.248,3.8136z" clip-rule="evenodd" fill-rule="evenodd"/>
  <path id="svg_8" fill="#A67C4C" d="m122.463,31.4852l-3.49,-1.8231l-39.653,-2.5891l11.543,-9.4765l-2.353,-1.1874l-11.234,2.7734l-1.643,-3.1737l-23.066,-10.2215l16.637,9.3584l2.46,7.404l-17.4518,2.3272l-2.39,3.9991l-8.5751,4.461l-7.7867,-6.8347l-22.2679,-10.9938l-11.8001,41.2865l8.7229,-22.906l34.0418,3.889l7.0674,-3.769l9.8709,0.397l6.3946,23.052l5.238,-1.293l51.286,26.052l-11.179,-15.031l-16.034,-7.227l3.484,-11.642l-2.384,-0.775l-6.411,-1.933l-8.24,-6.147l5.391,-4.207l2.902,3.864l11.74,-0.597l19.18,-7.0368z" clip-rule="evenodd" fill-rule="evenodd" opacity="0.5"/>
  <path id="svg_9" fill="#A67C4C" d="m25.7138,52.154l-16.5875,1.794l-4.5436,-5.59l-3.1914,8.437l46.5811,20.141l-22.2586,-24.782z" clip-rule="evenodd" fill-rule="evenodd" opacity="0.5"/>
  <path id="svg_10" fill="#FF7C25" d="m112.834,67.186l-11.493,-24.478l-4.541,17.251l16.034,7.227z" clip-rule="evenodd" fill-rule="evenodd"/>
  <path id="svg_11" fill="#A67C4C" d="m72.726,56.165l-7.5416,-15.12l18.0636,-1.583l8.24,6.147l-15.386,0.007l20.697,14.343l16.034,7.227l11.179,15.031l-51.286,-26.052z" clip-rule="evenodd" fill-rule="evenodd" opacity="0.5"/>
  <path id="svg_12" fill="#E05F25" d="m29.2907,49.609l0.1668,6.735l-7.2111,-3.824l7.0443,-2.911z" clip-rule="evenodd" fill-rule="evenodd"/>
  <path id="svg_13" fill="#E05F25" d="m110.098,36.03l-3.968,8.479l-7.013,-5.768l10.981,-2.711z" clip-rule="evenodd" fill-rule="evenodd"/>
  <path id="svg_14" fill="#E05F25" d="m95.569,17.3089l-8.443,3.3622l1.386,-4.2608l7.057,0.8986z" clip-rule="evenodd" fill-rule="evenodd"/>
  <path id="svg_15" fill="#E05F25" d="m37.651,43.669l0.1389,3.842l-5.8532,0.21l5.7143,-4.052z" clip-rule="evenodd" fill-rule="evenodd"/>
  <path id="svg_16" fill="url(#paint1_linear_4_1347)" d="m143.882,33.803l8.456,5.434l-11.919,28.213l-18.774,9.77l-13.354,-2.989l13.329,2.398l10.299,-7.081l13.941,-17.526l5.776,-12.782l-7.754,-5.437z" clip-rule="evenodd" fill-rule="evenodd"/>
  <path id="svg_17" fill="#FF7C25" d="m142.688,58.409l-2.752,8.435l-0.768,0.85l-5.446,2.325l-1.049,-0.146l4.209,-5.322l5.806,-6.142z" clip-rule="evenodd" fill-rule="evenodd"/>
  <path id="svg_18" fill="#E05F25" d="m159.381,41.078l-9.409,3.729l2.367,-5.57l-4.17,-2.678l11.212,4.519z" clip-rule="evenodd" fill-rule="evenodd"/>
  <path id="svg_19" fill="url(#paint2_linear_4_1347)" d="m209.613,90.593l1.599,8.767l-14.962,6.528l-29.782,-18.364l2.766,-5.349l40.379,8.418z" clip-rule="evenodd" fill-rule="evenodd"/>
  <path id="svg_20" fill="url(#paint3_linear_4_1347)" d="m71.296,95.573l12.067,12.426l-5.97,5.224l-10.034,-4.235l-3.575,-11.56l7.512,-1.855z" clip-rule="evenodd" fill-rule="evenodd"/>
  <path id="svg_21" fill="#FF7C25" d="m209.613,90.593l-17.177,1.045l-1.654,5.756l5.468,8.494l16.099,-5.53l-2.736,-9.765z" clip-rule="evenodd" fill-rule="evenodd"/>
  <path id="svg_22" fill="#FF7C25" d="m77.393,113.223l-8.097,-5.48l-1.594,-8.917l3.594,-3.253l12.067,12.426l-5.97,5.224z" clip-rule="evenodd" fill-rule="evenodd"/>
  <path id="svg_23" fill="#A67C4C" d="m69.297,107.743l-1.594,-8.917l-3.9181,-1.398l3.5751,11.561l1.937,-1.246z" clip-rule="evenodd" fill-rule="evenodd" opacity="0.5"/>
  <path id="svg_24" fill="#A67C4C" d="m192.437,91.638l-23.203,-9.463l40.379,8.418l-17.176,1.045z" clip-rule="evenodd" fill-rule="evenodd" opacity="0.5"/>
 </g>
</svg>