<svg width="255" height="261" viewBox="0 0 255 261" fill="none" xmlns="http://www.w3.org/2000/svg">
<path fill-rule="evenodd" clip-rule="evenodd" d="M170.175 98.7843L202.44 111.422L201.918 139.719L158.013 150.217L106.727 124.165L101.49 125.458L103.87 138.656L81.9727 144.936L36.4024 124.546L46.3589 82.2865L97.2018 68.7324L160.779 83.3554L170.175 98.7843Z" fill="url(#paint0_linear_4_1347)"/>
<path fill-rule="evenodd" clip-rule="evenodd" d="M202.44 111.422L156.462 99.4851L137.282 106.522L158.013 150.217L201.918 139.719L202.44 111.422Z" fill="#FF7C25"/>
<path fill-rule="evenodd" clip-rule="evenodd" d="M103.869 138.656L95.0938 102.406L85.223 102.009L59.7134 120.154L81.9719 144.935L103.869 138.656Z" fill="#FF7C25"/>
<path fill-rule="evenodd" clip-rule="evenodd" d="M91.7762 86.8611L85.8199 96.8757L77.2448 101.337L69.4581 94.5019L83.8611 83.1689L91.7762 86.8611Z" fill="#FF7C25"/>
<path fill-rule="evenodd" clip-rule="evenodd" d="M160.779 83.3553L124.862 85.5964L113.319 95.0729L170.175 98.7842L160.779 83.3553Z" fill="#FF7C25"/>
<path fill-rule="evenodd" clip-rule="evenodd" d="M122.64 103.255L131.901 115.542L125.49 113.609L117.25 107.462L122.64 103.255Z" fill="#FF7C25"/>
<path fill-rule="evenodd" clip-rule="evenodd" d="M122.772 82.4698L122.509 84.409L111.277 87.1821L109.634 84.0096L125.02 78.6562L122.772 82.4698Z" fill="#FF7C25"/>
<path opacity="0.5" fill-rule="evenodd" clip-rule="evenodd" d="M156.463 99.4852L152.973 97.6621L113.32 95.073L124.863 85.5965L122.51 84.4091L111.276 87.1825L109.633 84.0088L86.567 73.7873L103.204 83.1457L105.664 90.5497L88.2122 92.8769L85.8222 96.876L77.2471 101.337L69.4604 94.5023L47.1925 83.5085L35.3924 124.795L44.1153 101.889L78.1571 105.778L85.2245 102.009L95.0954 102.406L101.49 125.458L106.728 124.165L158.014 150.217L146.835 135.186L130.801 127.959L134.285 116.317L131.901 115.542L125.49 113.609L117.25 107.462L122.641 103.255L125.543 107.119L137.283 106.522L156.463 99.4852Z" fill="#A67C4C"/>
<path opacity="0.5" fill-rule="evenodd" clip-rule="evenodd" d="M59.7138 120.154L43.1263 121.948L38.5827 116.358L35.3913 124.795L81.9724 144.936L59.7138 120.154Z" fill="#A67C4C"/>
<path fill-rule="evenodd" clip-rule="evenodd" d="M146.834 135.186L135.341 110.708L130.8 127.959L146.834 135.186Z" fill="#FF7C25"/>
<path opacity="0.5" fill-rule="evenodd" clip-rule="evenodd" d="M106.726 124.165L99.1844 109.045L117.248 107.462L125.488 113.609L110.102 113.616L130.799 127.959L146.833 135.186L158.012 150.217L106.726 124.165Z" fill="#A67C4C"/>
<path fill-rule="evenodd" clip-rule="evenodd" d="M63.2907 117.609L63.4575 124.344L56.2464 120.52L63.2907 117.609Z" fill="#E05F25"/>
<path fill-rule="evenodd" clip-rule="evenodd" d="M144.098 104.03L140.13 112.509L133.117 106.741L144.098 104.03Z" fill="#E05F25"/>
<path fill-rule="evenodd" clip-rule="evenodd" d="M129.569 85.3089L121.126 88.6711L122.512 84.4103L129.569 85.3089Z" fill="#E05F25"/>
<path fill-rule="evenodd" clip-rule="evenodd" d="M71.651 111.669L71.7899 115.511L65.9367 115.721L71.651 111.669Z" fill="#E05F25"/>
<path fill-rule="evenodd" clip-rule="evenodd" d="M177.882 101.803L186.338 107.237L174.419 135.45L155.645 145.22L142.291 142.231L155.62 144.629L165.919 137.548L179.86 120.022L185.636 107.24L177.882 101.803Z" fill="url(#paint1_linear_4_1347)"/>
<path fill-rule="evenodd" clip-rule="evenodd" d="M176.688 126.409L173.936 134.844L173.168 135.694L167.722 138.019L166.673 137.873L170.882 132.551L176.688 126.409Z" fill="#FF7C25"/>
<path fill-rule="evenodd" clip-rule="evenodd" d="M193.381 109.078L183.972 112.807L186.339 107.237L182.169 104.559L193.381 109.078Z" fill="#E05F25"/>
<path fill-rule="evenodd" clip-rule="evenodd" d="M243.613 158.593L245.212 167.36L230.25 173.888L200.468 155.524L203.234 150.175L243.613 158.593Z" fill="url(#paint2_linear_4_1347)"/>
<path fill-rule="evenodd" clip-rule="evenodd" d="M105.296 163.573L117.363 175.999L111.393 181.223L101.359 176.988L97.784 165.428L105.296 163.573Z" fill="url(#paint3_linear_4_1347)"/>
<path fill-rule="evenodd" clip-rule="evenodd" d="M243.613 158.593L226.436 159.638L224.782 165.394L230.25 173.888L246.349 168.358L243.613 158.593Z" fill="#FF7C25"/>
<path fill-rule="evenodd" clip-rule="evenodd" d="M111.393 181.223L103.296 175.743L101.702 166.826L105.296 163.573L117.363 175.999L111.393 181.223Z" fill="#FF7C25"/>
<path opacity="0.5" fill-rule="evenodd" clip-rule="evenodd" d="M103.297 175.743L101.703 166.826L97.7849 165.428L101.36 176.989L103.297 175.743Z" fill="#A67C4C"/>
<path opacity="0.5" fill-rule="evenodd" clip-rule="evenodd" d="M226.437 159.638L203.234 150.175L243.613 158.593L226.437 159.638Z" fill="#A67C4C"/>
<defs>
<linearGradient id="paint0_linear_4_1347" x1="70.7572" y1="75.2658" x2="93.2893" y2="166.529" gradientUnits="userSpaceOnUse">
<stop stop-color="#A43440"/>
<stop offset="1" stop-color="#C75225"/>
</linearGradient>
<linearGradient id="paint1_linear_4_1347" x1="196.506" y1="116.173" x2="159.992" y2="157.773" gradientUnits="userSpaceOnUse">
<stop stop-color="#C75225"/>
<stop offset="1" stop-color="#A43440"/>
</linearGradient>
<linearGradient id="paint2_linear_4_1347" x1="211.787" y1="148.058" x2="218.859" y2="176.705" gradientUnits="userSpaceOnUse">
<stop stop-color="#A43440"/>
<stop offset="1" stop-color="#C75225"/>
</linearGradient>
<linearGradient id="paint3_linear_4_1347" x1="97.7843" y1="165.419" x2="102.242" y2="183.473" gradientUnits="userSpaceOnUse">
<stop stop-color="#A43440"/>
<stop offset="1" stop-color="#C75225"/>
</linearGradient>
</defs>
</svg>
