<svg width="237" height="84" viewBox="0 0 237 84" fill="none" xmlns="http://www.w3.org/2000/svg">
<mask id="path-1-inside-1_3_403" fill="white">
<path fill-rule="evenodd" clip-rule="evenodd" d="M190.48 22.9087C191.731 22.9087 192.797 23.7487 193.681 24.6328L203.889 34.8409C205.841 36.7935 209.007 36.7935 210.96 34.8409L221.168 24.6328C222.052 23.7487 223.118 22.9087 224.368 22.9087H231.727C234.488 22.9087 236.727 25.1473 236.727 27.9087V78.9995C236.727 81.761 234.488 83.9995 231.727 83.9995H5C2.23858 83.9995 0 81.761 0 78.9995V27.9087C0 25.1473 2.23858 22.9087 5 22.9087H190.48Z"/>
</mask>
<path d="M193.681 24.6328L192.267 26.047L192.267 26.047L193.681 24.6328ZM203.889 34.8409L202.475 36.2551L202.475 36.2551L203.889 34.8409ZM210.96 34.8409L212.374 36.2551L212.374 36.2551L210.96 34.8409ZM221.168 24.6328L222.582 26.047L222.582 26.047L221.168 24.6328ZM190.48 24.9087C190.85 24.9087 191.401 25.1819 192.267 26.047L195.095 23.2186C194.192 22.3155 192.611 20.9087 190.48 20.9087V24.9087ZM192.267 26.047L202.475 36.2551L205.303 33.4266L195.095 23.2186L192.267 26.047ZM202.475 36.2551C205.208 38.9887 209.64 38.9887 212.374 36.2551L209.546 33.4266C208.374 34.5982 206.475 34.5982 205.303 33.4266L202.475 36.2551ZM212.374 36.2551L222.582 26.047L219.754 23.2186L209.546 33.4266L212.374 36.2551ZM222.582 26.047C223.447 25.1819 223.999 24.9087 224.368 24.9087V20.9087C222.237 20.9087 220.657 22.3155 219.754 23.2186L222.582 26.047ZM224.368 24.9087H231.727V20.9087H224.368V24.9087ZM231.727 24.9087C233.384 24.9087 234.727 26.2518 234.727 27.9087H238.727C238.727 24.0427 235.593 20.9087 231.727 20.9087V24.9087ZM234.727 27.9087V78.9995H238.727V27.9087H234.727ZM234.727 78.9995C234.727 80.6564 233.384 81.9995 231.727 81.9995V85.9995C235.593 85.9995 238.727 82.8655 238.727 78.9995H234.727ZM231.727 81.9995H5V85.9995H231.727V81.9995ZM5 81.9995C3.34315 81.9995 2 80.6564 2 78.9995H-2C-2 82.8655 1.13401 85.9995 5 85.9995V81.9995ZM2 78.9995V27.9087H-2V78.9995H2ZM2 27.9087C2 26.2518 3.34315 24.9087 5 24.9087V20.9087C1.13401 20.9087 -2 24.0427 -2 27.9087H2ZM5 24.9087H190.48V20.9087H5V24.9087Z" fill="url(#paint0_linear_3_403)" mask="url(#path-1-inside-1_3_403)"/>
<path d="M77.44 51.5596H79.6L75.4 63.9996H72.52L69.62 53.9796L66.72 63.9996H63.86L59.68 51.5596H61.9L65.3 62.4596L68.46 51.5596H70.8L73.92 62.4596L77.44 51.5596ZM85.2491 54.2996H89.8891C90.9424 54.2996 91.4691 54.8263 91.4691 55.8796V63.9996H89.3491V56.0996C89.3491 55.8463 89.3091 55.6796 89.2291 55.5996C89.1624 55.5196 88.9957 55.4796 88.7291 55.4796H84.8291C84.5891 55.4796 84.4157 55.533 84.3091 55.6396C84.2024 55.733 84.1491 55.9063 84.1491 56.1596V56.7796H84.1291V63.9996H81.9891V50.6196H84.1291V54.9596C84.2757 54.5196 84.6491 54.2996 85.2491 54.2996ZM97.0044 63.9996H94.8644V54.2996H97.0044V63.9996ZM94.8244 52.4396V50.5996H97.0644V52.4396H94.8244ZM105.623 55.4796H103.283V62.1196C103.283 62.3863 103.323 62.5596 103.403 62.6396C103.483 62.7063 103.649 62.7396 103.903 62.7396H105.603V63.9996H102.723C101.669 63.9996 101.143 63.473 101.143 62.4196V55.4796H99.5828V54.2996H101.143V52.4996H103.283V54.2996H105.623V55.4796ZM110.043 58.4396H115.463V56.0996C115.463 55.8463 115.423 55.6796 115.343 55.5996C115.263 55.5196 115.096 55.4796 114.843 55.4796H110.663C110.396 55.4796 110.223 55.5196 110.143 55.5996C110.076 55.6796 110.043 55.8463 110.043 56.0996V58.4396ZM109.483 54.2996H115.983C117.036 54.2996 117.563 54.8263 117.563 55.8796V59.6196H110.043V62.1996C110.043 62.4663 110.076 62.6396 110.143 62.7196C110.223 62.7863 110.396 62.8196 110.663 62.8196H114.803C115.056 62.8196 115.223 62.7863 115.303 62.7196C115.383 62.6396 115.423 62.4663 115.423 62.1996V61.1796H117.523V62.4196C117.523 63.473 116.996 63.9996 115.943 63.9996H109.483C108.429 63.9996 107.903 63.473 107.903 62.4196V55.8796C107.903 54.8263 108.429 54.2996 109.483 54.2996ZM128.102 62.1996V56.0996C128.102 55.8463 128.062 55.6796 127.982 55.5996C127.902 55.5196 127.736 55.4796 127.482 55.4796H123.442C123.189 55.4796 123.009 55.533 122.902 55.6396C122.796 55.733 122.742 55.9063 122.742 56.1596V62.1396C122.742 62.393 122.796 62.573 122.902 62.6796C123.009 62.773 123.189 62.8196 123.442 62.8196H127.482C127.736 62.8196 127.902 62.7863 127.982 62.7196C128.062 62.6396 128.102 62.4663 128.102 62.1996ZM123.842 54.2996H128.662C129.716 54.2996 130.242 54.8263 130.242 55.8796V62.4196C130.242 63.473 129.716 63.9996 128.662 63.9996H123.842C123.256 63.9996 122.889 63.7796 122.742 63.3396V66.8196H120.602V54.2996H122.722V55.0196C122.882 54.5396 123.256 54.2996 123.842 54.2996ZM136.034 62.8196H139.914C140.154 62.8196 140.327 62.773 140.434 62.6796C140.541 62.573 140.594 62.393 140.594 62.1396V56.1596C140.594 55.9063 140.541 55.733 140.434 55.6396C140.327 55.533 140.154 55.4796 139.914 55.4796H136.034C135.767 55.4796 135.594 55.5196 135.514 55.5996C135.447 55.6796 135.414 55.8463 135.414 56.0996V62.1996C135.414 62.4663 135.447 62.6396 135.514 62.7196C135.594 62.7863 135.767 62.8196 136.034 62.8196ZM140.594 54.2996H142.734V63.9996H140.594V63.3796C140.421 63.793 140.054 63.9996 139.494 63.9996H134.854C133.801 63.9996 133.274 63.473 133.274 62.4196V55.8796C133.274 54.8263 133.801 54.2996 134.854 54.2996H139.494C140.054 54.2996 140.421 54.5063 140.594 54.9196V54.2996ZM153.63 62.1996V56.0996C153.63 55.8463 153.59 55.6796 153.51 55.5996C153.43 55.5196 153.263 55.4796 153.01 55.4796H148.97C148.716 55.4796 148.536 55.533 148.43 55.6396C148.323 55.733 148.27 55.9063 148.27 56.1596V62.1396C148.27 62.393 148.323 62.573 148.43 62.6796C148.536 62.773 148.716 62.8196 148.97 62.8196H153.01C153.263 62.8196 153.43 62.7863 153.51 62.7196C153.59 62.6396 153.63 62.4663 153.63 62.1996ZM149.37 54.2996H154.19C155.243 54.2996 155.77 54.8263 155.77 55.8796V62.4196C155.77 63.473 155.243 63.9996 154.19 63.9996H149.37C148.783 63.9996 148.416 63.7796 148.27 63.3396V66.8196H146.13V54.2996H148.25V55.0196C148.41 54.5396 148.783 54.2996 149.37 54.2996ZM160.941 58.4396H166.361V56.0996C166.361 55.8463 166.321 55.6796 166.241 55.5996C166.161 55.5196 165.995 55.4796 165.741 55.4796H161.561C161.295 55.4796 161.121 55.5196 161.041 55.5996C160.975 55.6796 160.941 55.8463 160.941 56.0996V58.4396ZM160.381 54.2996H166.881C167.935 54.2996 168.461 54.8263 168.461 55.8796V59.6196H160.941V62.1996C160.941 62.4663 160.975 62.6396 161.041 62.7196C161.121 62.7863 161.295 62.8196 161.561 62.8196H165.701C165.955 62.8196 166.121 62.7863 166.201 62.7196C166.281 62.6396 166.321 62.4663 166.321 62.1996V61.1796H168.421V62.4196C168.421 63.473 167.895 63.9996 166.841 63.9996H160.381C159.328 63.9996 158.801 63.473 158.801 62.4196V55.8796C158.801 54.8263 159.328 54.2996 160.381 54.2996ZM175.341 54.2996H177.241V55.5396H174.981C174.087 55.5396 173.641 56.0396 173.641 57.0396V63.9996H171.501V54.2996H173.641V55.5396C173.867 54.713 174.434 54.2996 175.341 54.2996Z" fill="white"/>
<rect x="192.436" y="15.1194" width="21.3818" height="21.3818" rx="5" transform="rotate(-45 192.436 15.1194)" fill="url(#paint1_linear_3_403)"/>
<defs>
<linearGradient id="paint0_linear_3_403" x1="2.03437" y1="58.6905" x2="236.751" y2="54.9277" gradientUnits="userSpaceOnUse">
<stop stop-color="#C71458"/>
<stop offset="1" stop-color="#FEDF67"/>
</linearGradient>
<linearGradient id="paint1_linear_3_403" x1="192.62" y1="27.643" x2="213.825" y2="27.5553" gradientUnits="userSpaceOnUse">
<stop stop-color="#C71458"/>
<stop offset="1" stop-color="#FEDF67"/>
</linearGradient>
</defs>
</svg>
