<svg width="311" height="50" viewBox="0 0 311 50" fill="none" xmlns="http://www.w3.org/2000/svg">
<path d="M4.76 41.1456H0V16.2656H5.76L14.04 32.1456L22.64 16.2656H28.36V41.1456H23.6V21.8256L16.08 35.7456H12.08L4.76 21.8256V41.1456Z" fill="white"/>
<path d="M41.1888 38.7856H47.8288C48.3354 38.7856 48.6954 38.6923 48.9087 38.5056C49.1221 38.2923 49.2288 37.9456 49.2288 37.4656V25.4256C49.2288 24.9456 49.1221 24.6123 48.9087 24.4256C48.6954 24.2123 48.3354 24.1056 47.8288 24.1056H41.1888C40.6554 24.1056 40.3088 24.1856 40.1488 24.3456C40.0154 24.5056 39.9487 24.839 39.9487 25.3456V37.5456C39.9487 38.079 40.0154 38.4256 40.1488 38.5856C40.3088 38.719 40.6554 38.7856 41.1888 38.7856ZM49.2288 21.7456H54.3888V41.1456H49.2288V39.9056C48.9088 40.7323 48.1621 41.1456 46.9888 41.1456H37.9487C35.8421 41.1456 34.7887 40.0923 34.7887 37.9856V24.9056C34.7887 22.799 35.8421 21.7456 37.9487 21.7456H46.9888C48.1621 21.7456 48.9088 22.159 49.2288 22.9856V21.7456Z" fill="white"/>
<path d="M69.6128 21.7056H73.0928V24.3056H68.6928C66.8528 24.3056 65.9328 25.3056 65.9328 27.3056V41.1456H60.7728V21.7456H65.9328V24.1456C66.4395 22.519 67.6661 21.7056 69.6128 21.7056Z" fill="white"/>
<path d="M89.5122 37.5856V33.9056C89.5122 33.399 89.4322 33.0656 89.2722 32.9056C89.1122 32.7456 88.7789 32.6656 88.2722 32.6656H79.2722C77.1655 32.6656 76.1122 31.6123 76.1122 29.5056V24.9056C76.1122 22.799 77.1655 21.7456 79.2722 21.7456H91.3122C93.4189 21.7456 94.4722 22.799 94.4722 24.9056V27.3456H89.4322V25.3056C89.4322 24.7723 89.3522 24.439 89.1922 24.3056C89.0322 24.1456 88.6989 24.0656 88.1922 24.0656H82.5122C82.0055 24.0656 81.6722 24.1456 81.5122 24.3056C81.3522 24.439 81.2722 24.7723 81.2722 25.3056V29.0656C81.2722 29.599 81.3522 29.9456 81.5122 30.1056C81.6722 30.239 82.0055 30.3056 82.5122 30.3056H91.4722C93.5789 30.3056 94.6322 31.359 94.6322 33.4656V37.9856C94.6322 40.0923 93.5789 41.1456 91.4722 41.1456H79.3922C77.2855 41.1456 76.2322 40.0923 76.2322 37.9856V35.5456H81.2722V37.5856C81.2722 38.0923 81.3522 38.4256 81.5122 38.5856C81.6722 38.7456 82.0055 38.8256 82.5122 38.8256H88.2722C88.7789 38.8256 89.1122 38.7456 89.2722 38.5856C89.4322 38.4256 89.5122 38.0923 89.5122 37.5856Z" fill="white"/>
<path fill-rule="evenodd" clip-rule="evenodd" d="M131.903 21.182L123.904 21.0596L124.026 13.0606L132.025 13.1829L131.903 21.182ZM118.751 30.982C115.99 30.9398 113.786 28.6672 113.828 25.9061L114.061 10.6861L111.283 10.6436C108.522 10.6014 106.25 12.8055 106.207 15.5666L105.932 33.5645C105.89 36.3256 108.094 38.5981 110.855 38.6403L128.853 38.9156C131.614 38.9578 133.887 36.7537 133.929 33.9926L133.971 31.2148L118.751 30.982Z" fill="white"/>
<path d="M146.15 23.9023V16.2773C146.15 15.9607 146.1 15.7523 146 15.6523C145.9 15.5523 145.692 15.5023 145.375 15.5023H140.325C140.008 15.5023 139.8 15.5523 139.7 15.6523C139.6 15.7523 139.55 15.9607 139.55 16.2773V23.9023C139.55 24.2357 139.6 24.4523 139.7 24.5523C139.8 24.6357 140.008 24.6773 140.325 24.6773H145.375C145.692 24.6773 145.9 24.6357 146 24.5523C146.1 24.4523 146.15 24.2357 146.15 23.9023ZM138.875 14.0273H146.825C148.142 14.0273 148.8 14.6857 148.8 16.0023V24.1773C148.8 25.494 148.142 26.1523 146.825 26.1523H138.875C137.558 26.1523 136.9 25.494 136.9 24.1773V16.0023C136.9 14.6857 137.558 14.0273 138.875 14.0273ZM155.723 26.1523H153.073V9.42734H155.723V26.1523ZM169.246 23.9023V16.2773C169.246 15.9607 169.196 15.7523 169.096 15.6523C168.996 15.5523 168.787 15.5023 168.471 15.5023H163.421C163.104 15.5023 162.896 15.5523 162.796 15.6523C162.696 15.7523 162.646 15.9607 162.646 16.2773V23.9023C162.646 24.2357 162.696 24.4523 162.796 24.5523C162.896 24.6357 163.104 24.6773 163.421 24.6773H168.471C168.787 24.6773 168.996 24.6357 169.096 24.5523C169.196 24.4523 169.246 24.2357 169.246 23.9023ZM161.971 14.0273H169.921C171.237 14.0273 171.896 14.6857 171.896 16.0023V24.1773C171.896 25.494 171.237 26.1523 169.921 26.1523H161.971C160.654 26.1523 159.996 25.494 159.996 24.1773V16.0023C159.996 14.6857 160.654 14.0273 161.971 14.0273ZM179.994 14.0273H185.769C187.086 14.0273 187.744 14.6857 187.744 16.0023V26.1523H185.094V16.2773C185.094 15.9607 185.044 15.7523 184.944 15.6523C184.844 15.5523 184.636 15.5023 184.319 15.5023H179.469C179.169 15.5023 178.952 15.569 178.819 15.7023C178.686 15.819 178.619 16.0357 178.619 16.3523V17.1523H178.594V26.1523H175.919V14.0273H178.594V14.8523C178.777 14.3023 179.244 14.0273 179.994 14.0273ZM194.664 26.1523H191.989V14.0273H194.664V26.1523ZM191.939 11.7023V9.40234H194.739V11.7023H191.939ZM208.562 24.6773V26.1523H198.387V24.6773L205.662 15.5023H198.712V14.0273H208.512V15.5023L201.212 24.6773H208.562ZM215.252 24.6773H220.102C220.402 24.6773 220.619 24.619 220.752 24.5023C220.886 24.369 220.952 24.144 220.952 23.8273V16.3523C220.952 16.0357 220.886 15.819 220.752 15.7023C220.619 15.569 220.402 15.5023 220.102 15.5023H215.252C214.919 15.5023 214.702 15.5523 214.602 15.6523C214.519 15.7523 214.477 15.9607 214.477 16.2773V23.9023C214.477 24.2357 214.519 24.4523 214.602 24.5523C214.702 24.6357 214.919 24.6773 215.252 24.6773ZM220.952 14.0273H223.627V26.1523H220.952V25.3773C220.736 25.894 220.277 26.1523 219.577 26.1523H213.777C212.461 26.1523 211.802 25.494 211.802 24.1773V16.0023C211.802 14.6857 212.461 14.0273 213.777 14.0273H219.577C220.277 14.0273 220.736 14.2857 220.952 14.8023V14.0273ZM234.172 15.5023H231.247V23.8023C231.247 24.1357 231.297 24.3523 231.397 24.4523C231.497 24.5357 231.705 24.5773 232.022 24.5773H234.147V26.1523H230.547C229.23 26.1523 228.572 25.494 228.572 24.1773V15.5023H226.622V14.0273H228.572V11.7773H231.247V14.0273H234.172V15.5023ZM240.147 26.1523H237.472V14.0273H240.147V26.1523ZM237.422 11.7023V9.40234H240.222V11.7023H237.422ZM253.645 23.9023V16.2773C253.645 15.9607 253.595 15.7523 253.495 15.6523C253.395 15.5523 253.187 15.5023 252.87 15.5023H247.82C247.503 15.5023 247.295 15.5523 247.195 15.6523C247.095 15.7523 247.045 15.9607 247.045 16.2773V23.9023C247.045 24.2357 247.095 24.4523 247.195 24.5523C247.295 24.6357 247.503 24.6773 247.82 24.6773H252.87C253.187 24.6773 253.395 24.6357 253.495 24.5523C253.595 24.4523 253.645 24.2357 253.645 23.9023ZM246.37 14.0273H254.32C255.637 14.0273 256.295 14.6857 256.295 16.0023V24.1773C256.295 25.494 255.637 26.1523 254.32 26.1523H246.37C245.053 26.1523 244.395 25.494 244.395 24.1773V16.0023C244.395 14.6857 245.053 14.0273 246.37 14.0273ZM264.393 14.0273H270.168C271.485 14.0273 272.143 14.6857 272.143 16.0023V26.1523H269.493V16.2773C269.493 15.9607 269.443 15.7523 269.343 15.6523C269.243 15.5523 269.035 15.5023 268.718 15.5023H263.868C263.568 15.5023 263.352 15.569 263.218 15.7023C263.085 15.819 263.018 16.0357 263.018 16.3523V17.1523H262.993V26.1523H260.318V14.0273H262.993V14.8523C263.177 14.3023 263.643 14.0273 264.393 14.0273Z" fill="white"/>
</svg>
